<svg width="71" height="42" viewBox="0 0 71 42" fill="none" xmlns="http://www.w3.org/2000/svg">
<path d="M0.96 42V-2.86102e-06H18.24C20.88 -2.86102e-06 23.2 0.539997 25.2 1.62C27.24 2.66 28.82 4.14 29.94 6.06C31.1 7.98 31.68 10.26 31.68 12.9V13.74C31.68 16.34 31.08 18.62 29.88 20.58C28.72 22.5 27.12 24 25.08 25.08C23.08 26.12 20.8 26.64 18.24 26.64H8.88V42H0.96ZM8.88 19.44H17.46C19.34 19.44 20.86 18.92 22.02 17.88C23.18 16.84 23.76 15.42 23.76 13.62V13.02C23.76 11.22 23.18 9.8 22.02 8.76C20.86 7.72 19.34 7.2 17.46 7.2H8.88V19.44Z" fill="#DD2C2F"/>
<path d="M35.7952 42V35.04H41.3152V6.96H35.7952V-2.86102e-06H53.0752C58.7152 -2.86102e-06 62.9952 1.44 65.9152 4.32C68.8752 7.16 70.3552 11.4 70.3552 17.04V24.96C70.3552 30.6 68.8752 34.86 65.9152 37.74C62.9952 40.58 58.7152 42 53.0752 42H35.7952ZM49.2352 34.8H53.1952C56.3952 34.8 58.7352 33.96 60.2152 32.28C61.6952 30.6 62.4352 28.24 62.4352 25.2V16.8C62.4352 13.72 61.6952 11.36 60.2152 9.72C58.7352 8.04 56.3952 7.2 53.1952 7.2H49.2352V34.8Z" fill="#212529"/>
</svg>
